<svg id="visual" viewBox="0 0 900 450" width="900" height="450" xmlns="http://www.w3.org/2000/svg" xmlns:xlink="http://www.w3.org/1999/xlink" version="1.1"><path d="M0 225L75 242.5C150 260 300 295 450 313.8C600 332.7 750 335.3 825 336.7L900 338L900 451L825 451C750 451 600 451 450 451C300 451 150 451 75 451L0 451Z" fill="#ffcb2b"></path><path d="M0 329L75 337.7C150 346.3 300 363.7 450 360.7C600 357.7 750 334.3 825 322.7L900 311L900 451L825 451C750 451 600 451 450 451C300 451 150 451 75 451L0 451Z" fill="#38bdf8"></path></svg>