<svg id="visual" viewBox="0 0 1400 300" width="1400" height="300" xmlns="http://www.w3.org/2000/svg" xmlns:xlink="http://www.w3.org/1999/xlink" version="1.1"><path d="M0 51L116.7 70.3C233.3 89.7 466.7 128.3 700 149.2C933.3 170 1166.7 173 1283.3 174.5L1400 176L1400 301L1283.3 301C1166.7 301 933.3 301 700 301C466.7 301 233.3 301 116.7 301L0 301Z" fill="#ffcb2b"></path><path d="M0 165L116.7 174.8C233.3 184.7 466.7 204.3 700 201.2C933.3 198 1166.7 172 1283.3 159L1400 146L1400 301L1283.3 301C1166.7 301 933.3 301 700 301C466.7 301 233.3 301 116.7 301L0 301Z" fill="#54C8E8"></path></svg>