<?xml version="1.0" encoding="utf-8"?>
<!-- Generator: Adobe Illustrator 28.0.0, SVG Export Plug-In . SVG Version: 6.00 Build 0)  -->
<svg version="1.1" id="Layer_1" xmlns="http://www.w3.org/2000/svg" xmlns:xlink="http://www.w3.org/1999/xlink" x="0px" y="0px"
	 viewBox="0 0 1190.55 408.7" style="enable-background:new 0 0 1190.55 408.7;" xml:space="preserve">
<style type="text/css">
	.st0{fill:#000F9F;}
	.st1{fill:#F5A800;}
	.st2{fill:#54C8E8;}
</style>
<g>
	<g>
		<path class="st0" d="M157.16,222.92c-9.74,0-18.5-2.16-26.27-6.48c-7.77-4.32-13.91-10.23-18.41-17.76
			c-4.5-7.52-6.75-15.97-6.75-25.35c0-9.49,2.25-17.97,6.75-25.44c4.5-7.46,10.64-13.38,18.41-17.76
			c7.77-4.38,16.53-6.57,26.27-6.57c9.74,0,18.47,2.19,26.18,6.57c7.71,4.38,13.81,10.3,18.32,17.76c4.5,7.46,6.75,15.94,6.75,25.44
			c0,9.38-2.25,17.82-6.75,25.35c-4.5,7.52-10.64,13.44-18.41,17.76C175.48,220.76,166.78,222.92,157.16,222.92z"/>
		<path class="st0" d="M272.78,222.92c-9.74,0-18.16-1.88-25.25-5.64c-7.09-3.76-12.55-8.88-16.37-15.35
			c-3.82-6.48-5.74-13.66-5.74-21.55V125.8h28.67v53.83c0,3.33,0.8,6.38,2.4,9.16c1.6,2.77,3.79,4.99,6.57,6.66
			c2.77,1.67,5.95,2.5,9.53,2.5c3.45,0,6.57-0.83,9.34-2.5c2.77-1.67,4.96-3.89,6.57-6.66c1.6-2.77,2.4-5.83,2.4-9.16V125.8h28.67
			v54.57c0,7.89-1.85,15.08-5.55,21.55c-3.7,6.47-9.04,11.59-16,15.35C291.07,221.04,282.65,222.92,272.78,222.92z"/>
		<path class="st0" d="M402.84,149.29V125.8h-26.09v-23.13h-28.86v23.13h-15.54v23.49h15.54v43.66c0,8.51,2.47,15.26,7.4,20.26
			c4.93,4.99,11.78,7.49,20.53,7.49h27.01v-24.05h-20.72c-1.48,0-2.75-0.52-3.79-1.57c-1.05-1.05-1.57-2.31-1.57-3.79v-42H402.84z"
			/>
		<path class="st0" d="M420.6,220.7v-22.75h45.69c1.23,0,2.34-0.28,3.33-0.83c0.99-0.55,1.79-1.32,2.4-2.31
			c0.62-0.99,0.92-2.04,0.92-3.14c0-1.23-0.31-2.34-0.92-3.33c-0.62-0.99-1.42-1.76-2.4-2.31c-0.99-0.55-2.1-0.83-3.33-0.83h-16.65
			c-6.17,0-11.75-1.02-16.74-3.05c-4.99-2.04-8.94-5.24-11.84-9.62c-2.9-4.38-4.35-10.08-4.35-17.11c0-5.43,1.32-10.36,3.98-14.8
			c2.65-4.44,6.29-8.02,10.91-10.73c4.63-2.71,9.71-4.07,15.26-4.07h45.69v22.94H451.3c-1.73,0-3.18,0.55-4.35,1.67
			c-1.17,1.11-1.76,2.47-1.76,4.07c0,1.73,0.58,3.18,1.76,4.35c1.17,1.17,2.62,1.76,4.35,1.76h16.28c6.91,0,12.86,1.02,17.85,3.05
			s8.88,5.27,11.65,9.71c2.78,4.44,4.16,10.18,4.16,17.21c0,5.55-1.39,10.61-4.16,15.17c-2.77,4.56-6.47,8.2-11.1,10.91
			c-4.63,2.71-9.84,4.07-15.63,4.07H420.6z"/>
		<path class="st0" d="M565.45,222.92c-9.74,0-18.5-2.16-26.27-6.48c-7.77-4.32-13.91-10.23-18.41-17.76
			c-4.5-7.52-6.75-15.97-6.75-25.35c0-9.49,2.25-17.97,6.75-25.44c4.5-7.46,10.64-13.38,18.41-17.76
			c7.77-4.38,16.53-6.57,26.27-6.57c9.74,0,18.47,2.19,26.18,6.57c7.71,4.38,13.81,10.3,18.32,17.76c4.5,7.46,6.75,15.94,6.75,25.44
			c0,9.38-2.25,17.82-6.75,25.35c-4.5,7.52-10.64,13.44-18.41,17.76C583.76,220.76,575.07,222.92,565.45,222.92z"/>
		<path class="st0" d="M681.07,222.92c-9.74,0-18.16-1.88-25.25-5.64c-7.09-3.76-12.55-8.88-16.37-15.35
			c-3.82-6.48-5.74-13.66-5.74-21.55V125.8h28.67v53.83c0,3.33,0.8,6.38,2.4,9.16c1.6,2.77,3.79,4.99,6.57,6.66s5.95,2.5,9.53,2.5
			c3.45,0,6.57-0.83,9.34-2.5c2.77-1.67,4.96-3.89,6.57-6.66c1.6-2.77,2.41-5.83,2.41-9.16V125.8h28.67v54.57
			c0,7.89-1.85,15.08-5.55,21.55c-3.7,6.47-9.04,11.59-16,15.35C699.35,221.04,690.94,222.92,681.07,222.92z"/>
		<path class="st0" d="M748.59,220.7v-66.97c0-8.63,2.47-15.42,7.4-20.35c4.93-4.93,11.78-7.4,20.53-7.4h27.56v23.31h-20.53
			c-1.73,0-3.21,0.59-4.44,1.76c-1.24,1.17-1.85,2.68-1.85,4.53v65.12H748.59z"/>
		<path class="st0" d="M863.48,220.7c-9.87,0-18.62-2.06-26.27-6.2c-7.65-4.13-13.69-9.74-18.13-16.83
			c-4.44-7.09-6.66-15.2-6.66-24.33c0-9.13,2.22-17.23,6.66-24.33c4.44-7.09,10.48-12.73,18.13-16.93
			c7.65-4.19,16.4-6.29,26.27-6.29h14.25v24.23h-13.14c-4.81,0-8.94,1.02-12.39,3.05c-3.45,2.04-6.14,4.81-8.05,8.33
			c-1.91,3.51-2.87,7.49-2.87,11.93c0,4.44,0.95,8.42,2.87,11.93c1.91,3.51,4.59,6.29,8.05,8.32c3.45,2.04,7.58,3.05,12.39,3.05
			h13.14v24.05H863.48z"/>
		<path class="st0" d="M943.21,220.7c-10.73,0-20.17-2-28.3-6.01c-8.14-4.01-14.46-9.56-18.96-16.65c-4.5-7.09-6.75-15.32-6.75-24.7
			c0-10.36,2.16-19.24,6.48-26.64c4.32-7.4,10.08-13.1,17.3-17.11c7.21-4.01,15.2-6.01,23.96-6.01c9.99,0,18.34,2.1,25.07,6.29
			c6.72,4.2,11.81,9.9,15.26,17.11c3.45,7.21,5.18,15.45,5.18,24.7c0,1.6-0.09,3.49-0.28,5.64c-0.18,2.16-0.4,3.86-0.65,5.09h-62.16
			c0.74,3.21,2.16,5.92,4.26,8.14c2.1,2.22,4.75,3.86,7.95,4.9c3.21,1.05,6.78,1.57,10.73,1.57h29.04v23.68H943.21z M918.61,164.46
			h36.07c-0.25-1.97-0.62-3.89-1.11-5.74c-0.49-1.85-1.27-3.48-2.31-4.9c-1.05-1.42-2.25-2.65-3.61-3.7
			c-1.36-1.05-2.93-1.88-4.72-2.5c-1.79-0.62-3.79-0.93-6.01-0.93c-2.84,0-5.37,0.49-7.59,1.48c-2.22,0.99-4.07,2.31-5.55,3.98
			s-2.62,3.58-3.42,5.73C919.56,160.06,918.98,162.24,918.61,164.46z"/>
		<path class="st0" d="M1048.66,220.7c-10.73,0-20.17-2-28.3-6.01c-8.14-4.01-14.46-9.56-18.96-16.65
			c-4.5-7.09-6.75-15.32-6.75-24.7c0-10.36,2.16-19.24,6.48-26.64c4.32-7.4,10.08-13.1,17.3-17.11c7.21-4.01,15.2-6.01,23.96-6.01
			c9.99,0,18.34,2.1,25.07,6.29c6.72,4.2,11.81,9.9,15.26,17.11c3.45,7.21,5.18,15.45,5.18,24.7c0,1.6-0.09,3.49-0.28,5.64
			c-0.18,2.16-0.4,3.86-0.65,5.09h-62.16c0.74,3.21,2.16,5.92,4.26,8.14c2.1,2.22,4.75,3.86,7.95,4.9
			c3.21,1.05,6.78,1.57,10.73,1.57h29.04v23.68H1048.66z M1024.05,164.46h36.07c-0.25-1.97-0.62-3.89-1.11-5.74
			c-0.49-1.85-1.27-3.48-2.31-4.9c-1.05-1.42-2.25-2.65-3.61-3.7c-1.36-1.05-2.93-1.88-4.72-2.5c-1.79-0.62-3.79-0.93-6.01-0.93
			c-2.84,0-5.37,0.49-7.59,1.48c-2.22,0.99-4.07,2.31-5.55,3.98c-1.48,1.67-2.62,3.58-3.42,5.73
			C1025.01,160.06,1024.42,162.24,1024.05,164.46z"/>
	</g>
	<g>
		<circle class="st1" cx="157.6" cy="171.88" r="23.78"/>
		<path class="st1" d="M195.02,306.03c9.08,0,16.44-7.36,16.44-16.44c0-9.08-7.36-16.44-16.44-16.44c-25.18,0-48.24-13.83-61.68-37
			c-4.56-7.85-14.62-10.53-22.47-5.97c-7.86,4.56-10.53,14.62-5.97,22.47C124.29,286.07,157.98,306.03,195.02,306.03z"/>
	</g>
	<g>
		<circle class="st2" cx="565.36" cy="171.88" r="23.78"/>
		<path class="st2" d="M527.4,306.03c-9.08,0-16.44-7.36-16.44-16.44c0-9.08,7.36-16.44,16.44-16.44c25.18,0,48.24-13.83,61.68-37
			c4.56-7.85,14.62-10.53,22.47-5.97c7.86,4.56,10.53,14.62,5.97,22.47C598.14,286.07,564.45,306.03,527.4,306.03z"/>
	</g>
</g>
</svg>
